<?xml version="1.0" encoding="UTF-8" standalone="no"?>
<!-- Created with Inkscape (http://www.inkscape.org/) -->

<svg
   xmlns:dc="http://purl.org/dc/elements/1.1/"
   xmlns:cc="http://creativecommons.org/ns#"
   xmlns:rdf="http://www.w3.org/1999/02/22-rdf-syntax-ns#"
   xmlns:svg="http://www.w3.org/2000/svg"
   xmlns="http://www.w3.org/2000/svg"
   xmlns:xlink="http://www.w3.org/1999/xlink"
   xmlns:sodipodi="http://sodipodi.sourceforge.net/DTD/sodipodi-0.dtd"
   xmlns:inkscape="http://www.inkscape.org/namespaces/inkscape"
   version="1.1"
   id="svg815"
   width="760"
   height="137"
   viewBox="0 0 760 137"
   sodipodi:docname="i_love_phone.svg"
   inkscape:version="0.92.3 (2405546, 2018-03-11)">
  <metadata
     id="metadata821">
    <rdf:RDF>
      <cc:Work
         rdf:about="">
        <dc:format>image/svg+xml</dc:format>
        <dc:type
           rdf:resource="http://purl.org/dc/dcmitype/StillImage" />
        <dc:title />
      </cc:Work>
    </rdf:RDF>
  </metadata>
  <defs
     id="defs819">
    <linearGradient
       inkscape:collect="always"
       id="linearGradient826">
      <stop
         style="stop-color:#d59190;stop-opacity:1;"
         offset="0"
         id="stop822" />
      <stop
         style="stop-color:#7a4bbd;stop-opacity:1"
         offset="1"
         id="stop824" />
    </linearGradient>
    <linearGradient
       inkscape:collect="always"
       xlink:href="#linearGradient826"
       id="linearGradient828"
       x1="130.26128"
       y1="36.959709"
       x2="197.56021"
       y2="119.14331"
       gradientUnits="userSpaceOnUse" />
  </defs>
  <sodipodi:namedview
     pagecolor="#ffffff"
     bordercolor="#666666"
     borderopacity="1"
     objecttolerance="10"
     gridtolerance="10"
     guidetolerance="10"
     inkscape:pageopacity="0"
     inkscape:pageshadow="2"
     inkscape:window-width="2560"
     inkscape:window-height="1377"
     id="namedview817"
     showgrid="false"
     inkscape:zoom="1.8981889"
     inkscape:cx="304.74516"
     inkscape:cy="100.44626"
     inkscape:window-x="-8"
     inkscape:window-y="-8"
     inkscape:window-maximized="1"
     inkscape:current-layer="svg815" />
  <path
     style="fill:url(#linearGradient828);fill-opacity:1;stroke-width:1.46193314"
     d="M 138.11143,129.92038 C 110.01158,114.96572 81.185299,80.043702 75.089088,53.571015 70.578802,33.985185 78.951865,16.825134 97.827952,6.9692331 111.87317,-0.36431712 127.35051,2.1259934 142.75484,14.197982 l 5.37582,4.2129 9.64356,-7.270097 c 11.0521,-8.3319857 18.90333,-10.94408044 29.61122,-9.8516261 8.61716,0.879146 14.41721,3.5309843 21.75165,9.9450461 6.08987,5.32568 6.24664,6.523927 1.66302,12.7119 -4.62702,6.246596 -7.35335,16.384219 -6.13946,22.829051 0.55659,2.955095 3.89465,8.762163 7.73893,13.463105 l 6.76016,8.266577 -3.35658,5.927159 c -5.8421,10.316104 -14.89528,21.171271 -27.07126,32.459613 -11.67565,10.82451 -36.01105,28.22014 -39.36384,28.13841 -0.95429,-0.0234 -6.01977,-2.32261 -11.25663,-5.10964 z"
     id="path839"
     inkscape:connector-curvature="0" />
  <g
     id="g931"
     transform="matrix(2.3555368,0,0,2.3566836,230.00423,-322.55332)"
     style="fill:#fbfbfb;fill-opacity:1">
    <path
       inkscape:connector-curvature="0"
       id="path869"
       d="m 16.467995,136.97745 c -16.7080198,0 -16.46780848165,-0.42484 -16.46780848165,29.25489 0,23.53796 0.11754711165,24.51815 3.22102468165,26.68218 2.7428828,1.9126 3.6664756,1.95301 6.213622,0.27575 2.3610738,-1.55475 3.0844128,-3.8109 3.4237788,-10.69733 l 0.428331,-8.72444 8.743618,-0.91252 c 4.809373,-0.50043 10.754113,-1.94252 13.209649,-3.20665 8.795798,-4.52813 10.969309,-19.87749 3.766449,-26.59405 -4.92189,-4.58957 -10.439382,-6.07783 -22.538664,-6.07783 z m -3.30955,11.64397 h 5.728184 c 3.150701,0 6.769223,0.39818 8.041158,0.88409 2.732239,1.04377 3.101358,7.93958 0.559679,10.4699 -0.964938,0.96063 -4.58346,1.74546 -8.041157,1.74546 h -6.287864 v -6.54973 z"
       style="fill-opacity:1;stroke-width:1.45875823;fill:#fbfbfb" />
    <path
       inkscape:connector-curvature="0"
       id="path865"
       d="m 52.008977,193.27295 c -2.0601,-1.49965 -2.3179,-5.13321 -1.96963,-27.76136 0.353182,-22.94872 0.704069,-26.22616 2.959248,-27.64085 4.339097,-2.72198 7.578236,0.63647 8.406665,8.71632 0.556872,5.43128 1.253441,6.98432 2.924058,6.51939 17.746294,-4.93877 23.760159,1.34565 23.079541,24.11785 -0.373753,12.50547 -0.755562,14.2115 -3.600494,16.08817 -2.863076,1.88865 -3.486544,1.7965 -6.213622,-0.91839 -2.572513,-2.56102 -3.034616,-4.83479 -3.053608,-15.02551 -0.02529,-13.54934 -1.015715,-16.1126 -5.954477,-15.41004 -4.918426,0.69965 -7.131674,6.23326 -7.182231,17.95715 -0.02412,5.60366 -0.527295,10.89121 -1.118072,11.75013 -1.821103,2.64766 -5.789517,3.41817 -8.277378,1.60714 z"
       style="fill-opacity:1;stroke-width:1.45875823;fill:#fbfbfb" />
    <path
       inkscape:connector-curvature="0"
       id="path863"
       d="m 114.04413,151.53524 c -7.39215,-0.0224 -14.772107,3.43393 -18.378157,10.3761 -3.243174,6.24359 -3.125861,17.27629 0.245577,22.95816 1.473783,2.48378 5.33247,5.8542 8.57513,7.49068 9.75773,4.92452 22.38653,1.42746 27.8014,-7.6982 3.31135,-5.58063 3.41201,-16.53702 0.20846,-22.63978 -3.65573,-6.96409 -11.06026,-10.4646 -18.45241,-10.48696 z m -0.006,10.18563 c 8.22113,0 11.72766,11.87808 5.74245,19.45303 -1.66659,2.10926 -4.25095,3.8349 -5.74245,3.8349 -3.85989,0 -8.77217,-6.8562 -8.77217,-12.24379 0,-6.46662 3.63568,-11.04414 8.77217,-11.04414 z"
       style="fill-opacity:1;stroke-width:1.45875823;fill:#fbfbfb" />
    <path
       sodipodi:nodetypes="csssscscsccssc"
       inkscape:connector-curvature="0"
       id="path859"
       d="m 143.44671,192.82281 c -2.8433,-1.98263 -3.0919,-3.50284 -3.0919,-18.90733 0,-9.21324 0.68106,-18.01823 1.51346,-19.56665 1.69572,-3.15432 5.79005,-3.69521 8.38867,-1.1082 1.31169,1.30583 2.59947,1.30583 5.47831,0 6.82028,-3.09364 13.66133,-2.12895 18.40716,2.59569 0,0 1.65986,1.94482 2.4159,3.82836 2.04302,5.08974 1.49222,16.91245 1.49222,16.91245 0,0 0.54216,14.7247 -0.89054,16.16691 -0.57627,0.5801 -3.75089,0.75153 -3.75089,0.75153 -5.73427,0.65165 -6.68918,-1.44819 -6.71539,-14.76719 -0.0246,-12.45917 -1.58001,-17.00639 -5.81751,-17.00639 -5.50507,0 -7.36313,3.90692 -7.36313,15.48235 0,15.09116 -3.35574,20.29776 -10.06636,15.61847 z"
       style="fill-opacity:1;stroke-width:1.45875823;fill:#fbfbfb" />
    <path
       sodipodi:nodetypes="sccscsscsscsscccscc"
       inkscape:connector-curvature="0"
       id="path857"
       d="m 205.48374,152.26015 c -4.62448,0.0117 -9.86037,0.45878 -13.8293,4.24426 -11.48471,10.95386 -8.91708,29.69828 4.92578,35.95811 7.79244,3.5238 11.98899,3.40848 19.85447,-0.54012 5.45882,-2.74042 6.59838,-4.04685 6.98176,-8.00523 0.38884,-4.01492 -0.0178,-4.73035 -2.69277,-4.73035 -1.73338,0 -4.82301,1.30994 -6.86754,2.91099 -4.9502,3.87643 -11.32726,3.77078 -14.14627,-0.23595 -1.21823,-1.73151 -1.87229,-3.69642 -1.45631,-4.36649 0.41598,-0.67007 5.89752,-1.21955 12.18452,-1.21955 8.40573,0 11.91799,-0.58011 13.26392,-2.19461 2.91588,-3.49773 0.68858,-12.33436 -4.38037,-17.38066 -4.0434,-4.02533 -9.75823,-4.45128 -13.83789,-4.4404 z m -0.49115,8.76424 c 3.53579,0.0199 7.2164,2.15439 6.73048,4.70479 -0.3531,1.85318 -2.16568,2.6644 -6.68478,2.99057 -5.39732,0.38955 -6.2022,0.0661 -6.2022,-2.49594 0,-1.6189 1.27138,-3.62296 2.82696,-4.45176 0.98677,-0.52576 2.15096,-0.75427 3.32954,-0.74766 z"
       style="fill-opacity:1;stroke-width:1.45875823;fill:#fbfbfb" />
  </g>
  <path
     style="fill-opacity:1;stroke-width:1.46193314;fill:#fbfbfb"
     d="M 9.1845884,128.98917 C 4.7438243,128.13482 5.5041939e-5,121.78084 5.5041939e-5,116.68711 c 0,-7.56309 5.462675758061,-10.7131 20.507958958061,-11.82574 l 5.12699,-0.37915 V 64.359222 24.236225 L 16.851005,23.787926 C 5.4761635,23.207397 1.4649092,19.856165 1.4649092,10.933466 c 0,-10.29741335 1.5781022,-10.7710398 35.8889288,-10.7710398 32.376544,0 34.819277,0.58195854 36.614529,8.7231336 2.095547,9.5029492 -2.177901,13.3728202 -16.10657,14.5854682 l -8.789126,0.765197 -0.389035,40.286174 -0.389022,40.286171 9.853855,0.78783 c 11.12129,0.88914 15.094297,3.92795 15.094297,11.54503 0,6.47811 -2.370368,9.66364 -8.440153,11.34261 -5.205038,1.43978 -48.706329,1.83486 -55.6180246,0.50513 z"
     id="path853"
     inkscape:connector-curvature="0" />
</svg>
