<?xml version="1.0" encoding="UTF-8" standalone="no"?>
<!-- Created with Inkscape (http://www.inkscape.org/) -->

<svg
   xmlns:dc="http://purl.org/dc/elements/1.1/"
   xmlns:cc="http://creativecommons.org/ns#"
   xmlns:rdf="http://www.w3.org/1999/02/22-rdf-syntax-ns#"
   xmlns:svg="http://www.w3.org/2000/svg"
   xmlns="http://www.w3.org/2000/svg"
   xmlns:sodipodi="http://sodipodi.sourceforge.net/DTD/sodipodi-0.dtd"
   xmlns:inkscape="http://www.inkscape.org/namespaces/inkscape"
   version="1.1"
   id="svg815"
   width="600"
   height="600"
   viewBox="0 0 600 600"
   sodipodi:docname="store-icon.svg"
   inkscape:version="0.92.3 (2405546, 2018-03-11)">
  <metadata
     id="metadata821">
    <rdf:RDF>
      <cc:Work
         rdf:about="">
        <dc:format>image/svg+xml</dc:format>
        <dc:type
           rdf:resource="http://purl.org/dc/dcmitype/StillImage" />
        <dc:title></dc:title>
      </cc:Work>
    </rdf:RDF>
  </metadata>
  <defs
     id="defs819" />
  <sodipodi:namedview
     pagecolor="#ffffff"
     bordercolor="#666666"
     borderopacity="1"
     objecttolerance="10"
     gridtolerance="10"
     guidetolerance="10"
     inkscape:pageopacity="0"
     inkscape:pageshadow="2"
     inkscape:window-width="2560"
     inkscape:window-height="1377"
     id="namedview817"
     showgrid="false"
     inkscape:zoom="0.42604167"
     inkscape:cx="421.44544"
     inkscape:cy="133.91509"
     inkscape:window-x="-8"
     inkscape:window-y="-8"
     inkscape:window-maximized="1"
     inkscape:current-layer="svg815" />
  <path
     style="fill:#ffffff;stroke-width:0.98432028;fill-opacity:1"
     d="m 162.02058,599.48106 c -9.14179,-1.5747 -19.55627,-8.6143 -24.73496,-16.7196 -5.86716,-9.1827 -7.28933,-22.606 -3.47605,-32.8092 9.56523,-25.5937 41.95873,-32.6138 61.27256,-13.2785 18.16073,18.1807 12.47258,49.0755 -10.98982,59.6904 -7.22685,3.2696 -14.89704,4.3528 -22.07173,3.1169 z m 243.97678,0 c -9.05098,-1.5591 -20.29805,-9.2217 -25.26343,-17.212 -4.32681,-6.9627 -6.37271,-17.4632 -4.92045,-25.254 2.32387,-12.4666 10.36427,-23.0557 21.46025,-28.2631 4.87887,-2.2896 6.82397,-2.6201 15.42086,-2.6201 8.8943,0 10.40265,0.2776 15.72789,2.8951 7.51435,3.6935 14.65349,10.8405 18.02731,18.0472 2.31774,4.9509 2.64456,6.8661 2.64456,15.4976 0,8.6243 -0.32778,10.5488 -2.63658,15.4802 -7.17003,15.3146 -24.05157,24.2556 -40.46041,21.4291 z M 85.13765,484.98926 c -8.22808,-4.6655 -5.99285,3.0064 -47.19803,-161.9962 C 17.07283,239.43396 0,169.94991 0,168.58416 c 0,-3.32935 2.54686,-9.24463 5.21179,-12.10473 3.9313,-4.21925 8.73092,-5.85611 21.8854,-7.46379 22.24946,-2.71923 94.21353,-11.37484 148.01518,-17.80279 15.96178,-1.90704 39.86757,-4.76992 53.12397,-6.36196 13.2564,-1.59203 35.61274,-4.27464 49.68076,-5.96134 14.06801,-1.6867 36.203,-4.35043 49.18886,-5.9194 12.98586,-1.56899 34.8995,-4.20627 48.69698,-5.86064 13.79748,-1.65438 37.70327,-4.53664 53.12398,-6.40503 15.42071,-1.868406 32.80367,-3.920646 38.62881,-4.560536 9.52103,-1.04589 10.6333,-1.37351 11.00823,-3.24259 0.74217,-3.69979 3.43404,-20.45314 5.47703,-34.08722 4.44444,-29.66053 6.04229,-33.95581 14.04597,-37.75801 2.66835,-1.26762 69.06294,-18.3156903 81.02962,-20.80590026 4.87031,-1.01349 10.81408,1.10570996 15.08043,5.37677996 7.24194,7.2499303 7.76029,17.5373703 1.2473,24.7544303 -1.9429,2.15293 -4.34142,4.3478 -5.33005,4.87748 -0.98862,0.52969 -15.77001,4.47272 -32.84753,8.7623 -17.07751,4.28957 -31.83482,8.04859 -32.79401,8.35337 -1.43604,0.45628 -2.2055,3.55193 -4.35756,17.53115 -1.43747,9.33735 -3.94117,25.39759 -5.5638,35.689406 -3.43715,21.8009 -8.90367,56.53006 -12.32425,78.29665 -1.31941,8.39596 -3.97955,25.23713 -5.91145,37.42482 -1.93189,12.18765 -4.59203,29.02885 -5.91145,37.42475 -3.57867,22.7727 -9.00111,57.1853 -12.33735,78.2967 -1.62641,10.2918 -4.29958,27.5762 -5.94037,38.4097 -4.03118,26.6162 -6.19947,31.7697 -14.8978,35.4081 -3.24339,1.3566 -23.12133,1.5243 -180.75566,1.5243 -123.13422,0 -177.11152,0.3154 -177.11152,1.0349 0,0.8907 5.00106,21.4339 7.95966,32.6966 l 0.97018,3.6933 h 188.7989 c 136.64274,0 190.23908,0.3075 194.01216,1.1132 9.45934,2.0198 16.58238,11.8913 14.91257,20.6666 -1.25454,6.5931 -5.88604,12.4797 -11.48497,14.5975 -1.92434,0.7279 -64.2156,1.0426 -204.1338,1.0313 l -201.36436,-0.016 z m 29.30885,-208.1585 c -7.71887,-53.96853 -14.22672,-98.31722 -14.46189,-98.55266 -0.23519,-0.23543 -11.87111,0.9451 -25.85762,2.62339 -30.35002,3.64183 -31.82456,3.86284 -31.82456,4.76987 0,0.59976 43.52462,174.9781 46.32322,185.5907 l 0.97393,3.6932 h 19.44061 19.4406 z m 90.72434,90.9843 c -0.33358,-3.9272 -1.68554,-32.8452 -3.00436,-64.2624 -1.31882,-31.4171 -2.6536,-61.3323 -2.96617,-66.4783 -0.31258,-5.1459 -1.19011,-23.03627 -1.95011,-39.75642 -0.75999,-16.72016 -1.53222,-30.55089 -1.71607,-30.73494 -0.18385,-0.18405 -4.74329,0.28071 -10.13207,1.0328 -5.38879,0.7521 -18.20642,2.31858 -28.48361,3.48107 -10.2772,1.1625 -18.85724,2.28525 -19.06676,2.495 -0.36731,0.36772 27.04627,194.64309 28.10107,199.14749 0.51675,2.2068 0.60062,2.2159 20.17174,2.2159 h 19.65283 z m 77.57823,-8.3714 c 0.36782,-8.5313 1.30482,-29.0288 2.08222,-45.5499 0.77739,-16.5211 2.09003,-47.1011 2.91699,-67.9556 0.82695,-20.8545 1.92673,-46.55939 2.44396,-57.12205 0.51722,-10.56266 1.02994,-22.30716 1.13939,-26.09888 l 0.19899,-6.89405 -4.34732,0.046 c -6.41721,0.0678 -52.42413,5.52614 -53.32306,6.32631 -0.42386,0.37729 -0.0846,14.83107 0.75384,32.11951 0.83846,17.28844 2.61762,56.47376 3.95366,87.07836 1.33605,30.6046 2.87831,63.5896 3.42723,73.2998 0.54892,9.7103 0.99803,18.2417 0.99803,18.9587 0,1.0377 3.98516,1.3035 19.54364,1.3035 h 19.54365 l 0.66878,-15.5116 z m 89.93845,-97.5015 c 7.71872,-62.15713 14.27922,-114.27966 14.5789,-115.82779 l 0.54486,-2.81477 -4.77445,0.65382 c -2.62594,0.35959 -15.52225,1.89712 -28.65846,3.41672 -13.13622,1.5196 -24.10354,2.98267 -24.37184,3.25126 -0.6676,0.66833 -1.85489,24.50884 -5.36001,107.62756 -1.64466,39.0006 -3.42021,79.1092 -3.94568,89.1302 -0.52545,10.0209 -0.95939,20.3251 -0.96429,22.898 l -0.009,4.6781 h 19.46293 19.46294 z m 61.54142,109.3199 c 0.30584,-2.0313 1.90951,-13.8866 3.5637,-26.3451 1.65419,-12.4585 4.33573,-32.6236 5.95896,-44.8113 3.57146,-26.8155 7.76043,-58.28 11.76785,-88.39147 1.64004,-12.32311 4.51759,-33.61031 6.39455,-47.30491 1.87697,-13.69459 3.41268,-26.14003 3.41268,-27.65651 v -2.75726 l -10.57561,1.25163 c -28.20857,3.33848 -28.77121,3.44789 -29.23691,5.6854 -0.43403,2.08536 -29.05228,231.88632 -29.05203,233.28412 8e-5,0.4062 8.37252,0.7386 18.60543,0.7386 h 18.6053 z"
     id="path825"
     inkscape:connector-curvature="0" />
</svg>
